# xmcd
#
# Track frame offsets: 
#        150
#        15085
#        29502
#        46861
#        61656
#        82446
#        98508
#        114808
#        131275
#        147152
#        154527
#        165895
#
# Disc length: 2423 seconds
#
# Revision: 0
# Processed by: cddbd v1.5.2PL0 Copyright (c) Steve Scherf et al.
# Submitted via: ExactAudioCopy v0.99pb5
#
DISCID=7d09750c
DTITLE=Earth Rising - Andrews and Hoglund
DYEAR=1900
DGENRE=Blues
TTITLE0=Wiggle
TTITLE1=North Star
TTITLE2=It's All up to You
TTITLE3=Happy Blues
TTITLE4=Mirror Lake
TTITLE5=Shoreline
TTITLE6=Talkin Hound Blues
TTITLE7=September Moon
TTITLE8=Nasty Girl
TTITLE9=Wild
TTITLE10=Fire, The
TTITLE11=Freeland
EXTD=
EXTT0=
EXTT1=
EXTT2=
EXTT3=
EXTT4=
EXTT5=
EXTT6=
EXTT7=
EXTT8=
EXTT9=
EXTT10=
EXTT11=
PLAYORDER=
